M48
;Layer_Color=9474304
;FILE_FORMAT=4:4
METRIC,LZ
;TYPE=PLATED
T01F00S00C0.3000
T02F00S00C0.8128
T03F00S00C1.0000
T04F00S00C1.1000
T05F00S00C1.4000
;TYPE=NON_PLATED
T06F00S00C2.0000
%
T01
X0168275Y0054991
Y0057023
Y0059055
Y0061087
Y0063119
X0165481Y006477
X0162941Y0063627
X0159893Y0064643
X0165862Y0070612
X0167005Y0070485
X01640665Y0076327
X0163449Y0076962
X0162814Y0077597
X0159512Y0077978
Y0077089
X0157353Y0077978
X0152908Y0076581
X0153162Y0072517
X0151892Y0071882
X01552361Y0071628
X0155575Y0069307
X01572597Y00689584
X01577515Y00683395
X0158369Y0066548
X0155194Y006604
X0154686Y00653292
X0152781Y006477
X0151511Y0064897
X0152273Y0066802
X0154178Y0067564
X0155702Y0062992
X0156591
X0154051Y0060452
X0153289Y006096
X01525878Y00614072
X0151465Y00620441
X0147955Y00630095
X01477185Y00611437
X0141478Y0061214
X0143891Y0068707
X014478Y0072263
X01461214Y0075118
X0146729Y00746124
X01473564Y00750934
X01480048Y00746413
X0137033Y00758737
X01362425
X01362073Y00712583
X0135468Y00709784
X0137414Y0070993
X0136906Y0071628
X0132207Y0067056
X0130048Y0069215
X01278795Y0061468
X0125857Y0061976
X0124079Y006223
X01215938Y0061976
X0122936Y0053848
X0126873Y0052451
X0131445Y0056261
X0136144Y0055372
X0152273Y0057658
X01545011Y00515445
X0156845Y0051054
X0120142Y004953
X0119253Y0069342
Y0073406
X0120015Y0073787
X01206928Y00741937
X0122936Y00780962
X01235897Y00776517
X01242434Y00772072
X01253097Y00763182
X0118491Y0073025
X011684Y0066929
X0118618Y00635
Y0058039
X0117348Y0053848
X0113157Y0052197
X0113538Y0057404
X0110998
X0098171Y0067056
Y0067945
Y0068834
Y0069723
Y0070612
Y0071501
Y007239
X0097155
Y0071501
Y0070612
Y0069723
Y0068834
Y0067945
Y0067056
X0096012
Y0067945
Y0068834
Y0069723
Y0070612
Y0071501
Y007239
X0094869
Y0071501
Y0070612
Y0069723
Y0068834
Y0067945
Y0067056
X0093726
Y0067945
Y0068834
Y0069723
Y0070612
Y0071501
Y007239
X009271
Y0071501
Y0070612
Y0069723
Y0068834
Y0067945
Y0067056
X00923158Y00753107
X00915253Y0075311
X00931061Y00753284
X0093726Y0075819
X01061454Y00785407
X0106934Y0078486
X0107823Y00785407
X0108712Y00780962
X0107188Y0080772
X01065911Y00812902
X01057748Y00822798
X01051705Y00827895
X01061123Y00870753
X0101092Y0086614
Y0090043
X00880783Y00870753
X0086106Y0087249
X0083693Y0086106
X0118999Y0086614
Y0089916
X011811Y0112268
Y0114808
X0114427Y0112395
X0098552Y011049
X00969058Y01121266
X0132207Y0112395
X0135763Y0112268
Y0114808
X0150876Y0112522
X015494Y0112395
X0154813Y0114808
X0155067Y0089916
Y0086487
X01421803Y00870753
X01418428Y00822798
X01412385Y00827895
X01426591Y00812902
X0143256Y0080772
X0137033Y0086614
Y0089916
X01241463Y00870753
X01238089Y00822798
X01232045Y00827895
X01246251Y00812902
X0125222Y0080772
X01606931Y00812902
X016129Y0080772
X01598768Y00822798
X01592725Y00827895
X01602155Y00837072
X0160193Y00889306
X0160655Y0090043
X0171831Y0079883
X0170053Y0109982
X0171577Y0111887
X0168021
T02
X0084201Y0071501
X0089281
X0089662Y009271
X0093218
X0107696
X0111252
X012573
X0129286
X0143764
X014732
X0161798
X0165354
T03
X0160822Y0048641
X0163322
X0165822
X0168322
X0171577Y0048768
Y0051308
Y0053848
Y0056388
Y0058928
Y0061468
Y0064008
Y0069255
Y0071755
Y0074255
Y0076755
X015748Y0048641
X015494
X01524
X014986
X014732
X014478
X0144947Y0053467
X0147447
X0149947
X0152447
X0141033Y0052451
X0139033
X0137033
X0135033
X0133033
X0115951Y0080645
X0113411
X0110871
Y0083439
X0113411
X0115951
Y0086233
X0113411
X0110871
X0110998Y009017
X0113538
X0116078
Y009271
Y009525
Y009779
Y010033
Y010287
Y010541
Y010795
X0111466Y0110871
X0108966
X0106466
X0103966
X0102978Y010795
Y010541
Y010287
Y010033
Y009779
Y009525
Y009271
Y009017
X0098044
X0095504
X0092964
X0092837Y0086233
X0095377
X0097917
Y0083439
X0095377
X0092837
Y0080645
X0095377
X0097917
X0098044Y009271
Y009525
Y009779
Y010033
Y010287
Y010541
Y010795
X0093432Y0110871
X0090932
X0088432
X0085932
X0084944Y010795
Y010541
Y010287
Y010033
Y009779
Y009525
Y009271
Y009017
X0121012
Y009271
Y009525
Y009779
Y010033
Y010287
Y010541
Y010795
X0122Y0110871
X01245
X0127
X01295
X0134112Y010795
Y010541
Y010287
Y010033
Y009779
Y009525
Y009271
Y009017
X0131572
X0129032
X0128905Y0086233
X0131445
X0133985
Y0083439
X0131445
X0128905
Y0080645
X0131445
X0133985
X0146939
X0149479
X0152019
Y0083439
X0149479
X0146939
Y0086233
X0149479
X0152019
X0152146Y009017
Y009271
Y009525
Y009779
Y010033
Y010287
Y010541
Y010795
X015708
Y010541
Y010287
Y010033
Y009779
Y009525
Y009271
Y009017
X0149606
X0147066
X0139046
Y009271
Y009525
Y009779
Y010033
Y010287
Y010541
Y010795
X0140034Y0110871
X0142534
X0145034
X0147534
X0158068
X0160568
X0163068
X0165568
X017018Y010795
Y010541
Y010287
Y010033
Y009779
Y009525
Y009271
Y009017
X016764
X01651
X0164973Y0086233
X0167513
X0170053
Y0083439
X0167513
X0164973
Y0080645
X0167513
X0170053
T04
X0094996Y0049657
X0105156
Y0062357
X0094996
T05
X012323Y0049403
X012823
X0117054
X0112054
X0086995Y0048808
Y0053808
T06
X0158407Y0054601
X0086407Y0061101
X0098407Y0114101
X0170907
M30
