G04*
G04 #@! TF.GenerationSoftware,Altium Limited,Altium Designer,24.5.2 (23)*
G04*
G04 Layer_Color=32896*
%FSLAX44Y44*%
%MOMM*%
G71*
G04*
G04 #@! TF.SameCoordinates,211F2C99-C352-4B84-9391-B0A9BACE0CBF*
G04*
G04*
G04 #@! TF.FilePolarity,Positive*
G04*
G01*
G75*
%ADD11C,0.1270*%
%ADD12C,0.2000*%
D11*
X1520509Y579120D02*
G03*
X1520509Y584200I0J2540D01*
G01*
X1587181Y633730D02*
G03*
X1587181Y628650I0J-2540D01*
G01*
X1562419Y593090D02*
G03*
X1562419Y598170I0J2540D01*
G01*
X1657669Y651510D02*
G03*
X1657669Y656590I0J2540D01*
G01*
X1520509Y576580D02*
X1545082D01*
X1520509D02*
Y579120D01*
Y584200D02*
Y586740D01*
X1545082D01*
Y576580D02*
Y586740D01*
X1479550Y605790D02*
X1515110D01*
Y585470D02*
Y605790D01*
X1479550Y585470D02*
X1515110D01*
X1479550D02*
Y605790D01*
X1562608Y636270D02*
X1587181D01*
Y633730D02*
Y636270D01*
Y626110D02*
Y628650D01*
X1562608Y626110D02*
X1587181D01*
X1562608D02*
Y636270D01*
X1562419Y590550D02*
X1586992D01*
X1562419D02*
Y593090D01*
Y598170D02*
Y600710D01*
X1586992D01*
Y590550D02*
Y600710D01*
X1606026Y625224D02*
X1626346D01*
Y660784D01*
X1606026D02*
X1626346D01*
X1606026Y625224D02*
Y660784D01*
X1479550Y565150D02*
X1515110D01*
X1479550D02*
Y585470D01*
X1515110D01*
Y565150D02*
Y585470D01*
X1443990Y685800D02*
Y721360D01*
X1464310D01*
Y685800D02*
Y721360D01*
X1443990Y685800D02*
X1464310D01*
X1657669Y648970D02*
X1682242D01*
X1657669D02*
Y651510D01*
Y656590D02*
Y659130D01*
X1682242D01*
Y648970D02*
Y659130D01*
X1633220Y626110D02*
X1653540D01*
Y661670D01*
X1633220D02*
X1653540D01*
X1633220Y626110D02*
Y661670D01*
X1723390Y656590D02*
Y676910D01*
X1687830D02*
X1723390D01*
X1687830Y656590D02*
Y676910D01*
Y656590D02*
X1723390D01*
X1104900Y547370D02*
X1140460D01*
X1104900D02*
Y567690D01*
X1140460D01*
Y547370D02*
Y567690D01*
X848360Y681990D02*
Y702310D01*
Y681990D02*
X883920D01*
Y702310D01*
X848360D02*
X883920D01*
X848360Y681990D02*
X883920D01*
Y661670D02*
Y681990D01*
X848360Y661670D02*
X883920D01*
X848360D02*
Y681990D01*
X910590Y492760D02*
Y528320D01*
X890270Y492760D02*
X910590D01*
X890270D02*
Y528320D01*
X910590D01*
X1176020Y626110D02*
X1196340D01*
X1176020Y590550D02*
Y626110D01*
Y590550D02*
X1196340D01*
Y626110D01*
X1218438Y504190D02*
Y549910D01*
X1184402Y504190D02*
X1218438D01*
X1184402D02*
Y549910D01*
X1218438D01*
X1257395Y609600D02*
Y629920D01*
X1221835D02*
X1257395D01*
X1221835Y609600D02*
Y629920D01*
Y609600D02*
X1257395D01*
X1645920Y499110D02*
Y519430D01*
X1610360D02*
X1645920D01*
X1610360Y499110D02*
Y519430D01*
Y499110D02*
X1645920D01*
X1667510Y730250D02*
Y750570D01*
Y730250D02*
X1703070D01*
Y750570D01*
X1667510D02*
X1703070D01*
X1666240Y529590D02*
Y549910D01*
Y529590D02*
X1701800D01*
Y549910D01*
X1666240D02*
X1701800D01*
X1666240Y570230D02*
Y590550D01*
Y570230D02*
X1701800D01*
Y590550D01*
X1666240D02*
X1701800D01*
X1666240Y549910D02*
Y570230D01*
Y549910D02*
X1701800D01*
Y570230D01*
X1666240D02*
X1701800D01*
X1666240Y590550D02*
Y610870D01*
Y590550D02*
X1701800D01*
Y610870D01*
X1666240D02*
X1701800D01*
X1666240D02*
Y631190D01*
Y610870D02*
X1701800D01*
Y631190D01*
X1666240D02*
X1701800D01*
X1339850Y511810D02*
X1360170D01*
X1339850Y476250D02*
Y511810D01*
Y476250D02*
X1360170D01*
Y511810D01*
X1380490D01*
X1360170Y476250D02*
Y511810D01*
Y476250D02*
X1380490D01*
Y511810D01*
X1400810D02*
X1421130D01*
X1400810Y476250D02*
Y511810D01*
Y476250D02*
X1421130D01*
Y511810D01*
X1703070Y709930D02*
Y730250D01*
X1667510D02*
X1703070D01*
X1667510Y709930D02*
Y730250D01*
Y709930D02*
X1703070D01*
X1645920Y499110D02*
X1666240D01*
Y534670D01*
X1645920D02*
X1666240D01*
X1645920Y499110D02*
Y534670D01*
X946150Y1008380D02*
X966470D01*
X946150Y972820D02*
Y1008380D01*
Y972820D02*
X966470D01*
Y1008380D01*
X1126490D02*
X1146810D01*
X1126490Y972820D02*
Y1008380D01*
Y972820D02*
X1146810D01*
Y1008380D01*
X1306830D02*
X1327150D01*
X1306830Y972820D02*
Y1008380D01*
Y972820D02*
X1327150D01*
Y1008380D01*
X861060Y1050290D02*
X881380D01*
Y1085850D01*
X861060Y1050290D02*
Y1085850D01*
X881380D01*
X861060Y932180D02*
X881380D01*
X861060Y896620D02*
Y932180D01*
Y896620D02*
X881380D01*
Y932180D01*
X1041400Y1050290D02*
X1061720D01*
Y1085850D01*
X1041400Y1050290D02*
Y1085850D01*
X1061720D01*
X1041400Y932180D02*
X1061720D01*
X1041400Y896620D02*
Y932180D01*
Y896620D02*
X1061720D01*
Y932180D01*
X1221740D02*
X1242060D01*
X1221740Y896620D02*
Y932180D01*
Y896620D02*
X1242060D01*
Y932180D01*
X1221740Y1050290D02*
X1242060D01*
Y1085850D01*
X1221740Y1050290D02*
Y1085850D01*
X1242060D01*
X1402080Y1050290D02*
X1422400D01*
Y1085850D01*
X1402080Y1050290D02*
Y1085850D01*
X1422400D01*
X1402080Y932180D02*
X1422400D01*
X1402080Y896620D02*
Y932180D01*
Y896620D02*
X1422400D01*
Y932180D01*
X1487170Y1008380D02*
X1507490D01*
X1487170Y972820D02*
Y1008380D01*
Y972820D02*
X1507490D01*
Y1008380D01*
X1582420Y932180D02*
X1602740D01*
X1582420Y896620D02*
Y932180D01*
Y896620D02*
X1602740D01*
Y932180D01*
X1582420Y1050290D02*
X1602740D01*
Y1085850D01*
X1582420Y1050290D02*
Y1085850D01*
X1602740D01*
X885190Y726440D02*
Y746760D01*
X849630D02*
X885190D01*
X849630Y726440D02*
Y746760D01*
Y726440D02*
X885190D01*
X1668780Y973074D02*
Y1008634D01*
X1689100D01*
Y973074D02*
Y1008634D01*
X1668780Y973074D02*
X1689100D01*
X1236980Y560067D02*
X1231902D01*
X1234441D01*
Y552450D01*
X1225554D02*
X1228093D01*
X1229362Y553720D01*
Y556259D01*
X1228093Y557528D01*
X1225554D01*
X1224284Y556259D01*
Y554989D01*
X1229362D01*
X1221745Y557528D02*
Y552450D01*
Y554989D01*
X1220475Y556259D01*
X1219206Y557528D01*
X1217936D01*
X1214127Y552450D02*
Y557528D01*
X1212858D01*
X1211588Y556259D01*
Y552450D01*
Y556259D01*
X1210319Y557528D01*
X1209049Y556259D01*
Y552450D01*
X1206510D02*
X1203971D01*
X1205240D01*
Y557528D01*
X1206510D01*
X1200162Y552450D02*
Y557528D01*
X1196353D01*
X1195084Y556259D01*
Y552450D01*
X1191275Y557528D02*
X1188736D01*
X1187466Y556259D01*
Y552450D01*
X1191275D01*
X1192544Y553720D01*
X1191275Y554989D01*
X1187466D01*
X1183657Y558798D02*
Y557528D01*
X1184927D01*
X1182388D01*
X1183657D01*
Y553720D01*
X1182388Y552450D01*
X1177309D02*
X1174770D01*
X1173501Y553720D01*
Y556259D01*
X1174770Y557528D01*
X1177309D01*
X1178579Y556259D01*
Y553720D01*
X1177309Y552450D01*
X1170961Y557528D02*
Y552450D01*
Y554989D01*
X1169692Y556259D01*
X1168422Y557528D01*
X1167153D01*
X1614801Y600709D02*
Y595630D01*
X1612262Y593091D01*
X1609723Y595630D01*
Y600709D01*
X1607184D02*
Y593091D01*
X1603375D01*
X1602105Y594361D01*
Y599439D01*
X1603375Y600709D01*
X1607184D01*
X1599566Y593091D02*
X1597027D01*
X1598296D01*
Y600709D01*
X1599566Y599439D01*
X1593218Y593091D02*
X1590679D01*
X1591949D01*
Y600709D01*
X1593218Y599439D01*
X1558287Y643889D02*
Y638810D01*
X1555748Y636271D01*
X1553208Y638810D01*
Y643889D01*
X1550669D02*
Y636271D01*
X1546860D01*
X1545591Y637541D01*
Y642619D01*
X1546860Y643889D01*
X1550669D01*
X1543052Y637541D02*
X1541782Y636271D01*
X1539243D01*
X1537973Y637541D01*
Y642619D01*
X1539243Y643889D01*
X1541782D01*
X1543052Y642619D01*
Y641350D01*
X1541782Y640080D01*
X1537973D01*
X1649094Y670559D02*
X1650363Y671829D01*
X1652902D01*
X1654172Y670559D01*
Y665481D01*
X1652902Y664211D01*
X1650363D01*
X1649094Y665481D01*
X1646554Y664211D02*
X1644015D01*
X1645285D01*
Y671829D01*
X1646554Y670559D01*
X1640206D02*
X1638937Y671829D01*
X1636398D01*
X1635128Y670559D01*
Y669290D01*
X1636398Y668020D01*
X1635128Y666750D01*
Y665481D01*
X1636398Y664211D01*
X1638937D01*
X1640206Y665481D01*
Y666750D01*
X1638937Y668020D01*
X1640206Y669290D01*
Y670559D01*
X1638937Y668020D02*
X1636398D01*
X1622534Y671813D02*
Y664195D01*
X1617456D01*
X1609838D02*
X1614917D01*
X1609838Y669273D01*
Y670543D01*
X1611108Y671813D01*
X1613647D01*
X1614917Y670543D01*
X1702432Y679451D02*
Y687069D01*
X1698623D01*
X1697354Y685799D01*
Y683260D01*
X1698623Y681990D01*
X1702432D01*
X1699893D02*
X1697354Y679451D01*
X1694814D02*
X1692275D01*
X1693545D01*
Y687069D01*
X1694814Y685799D01*
X1683388Y687069D02*
X1688466D01*
Y683260D01*
X1685927Y684530D01*
X1684658D01*
X1683388Y683260D01*
Y680721D01*
X1684658Y679451D01*
X1687197D01*
X1688466Y680721D01*
X1676398Y681989D02*
Y675641D01*
X1675128Y674371D01*
X1672589D01*
X1671320Y675641D01*
Y681989D01*
X1664972Y674371D02*
Y681989D01*
X1668780Y678180D01*
X1663702D01*
X966978Y1015492D02*
Y1023110D01*
X963169D01*
X961900Y1021840D01*
Y1019301D01*
X963169Y1018031D01*
X966978D01*
X964439D02*
X961900Y1015492D01*
X955552D02*
Y1023110D01*
X959361Y1019301D01*
X954282D01*
X946665Y1015492D02*
X951743D01*
X946665Y1020570D01*
Y1021840D01*
X947934Y1023110D01*
X950473D01*
X951743Y1021840D01*
X1147318Y1015492D02*
Y1023110D01*
X1143509D01*
X1142240Y1021840D01*
Y1019301D01*
X1143509Y1018031D01*
X1147318D01*
X1144779D02*
X1142240Y1015492D01*
X1139700Y1021840D02*
X1138431Y1023110D01*
X1135892D01*
X1134622Y1021840D01*
Y1020570D01*
X1135892Y1019301D01*
X1137161D01*
X1135892D01*
X1134622Y1018031D01*
Y1016762D01*
X1135892Y1015492D01*
X1138431D01*
X1139700Y1016762D01*
X1132083Y1021840D02*
X1130813Y1023110D01*
X1128274D01*
X1127005Y1021840D01*
Y1020570D01*
X1128274Y1019301D01*
X1127005Y1018031D01*
Y1016762D01*
X1128274Y1015492D01*
X1130813D01*
X1132083Y1016762D01*
Y1018031D01*
X1130813Y1019301D01*
X1132083Y1020570D01*
Y1021840D01*
X1130813Y1019301D02*
X1128274D01*
X1327658Y1015492D02*
Y1023110D01*
X1323849D01*
X1322580Y1021840D01*
Y1019301D01*
X1323849Y1018031D01*
X1327658D01*
X1325119D02*
X1322580Y1015492D01*
X1320040Y1021840D02*
X1318771Y1023110D01*
X1316232D01*
X1314962Y1021840D01*
Y1020570D01*
X1316232Y1019301D01*
X1317501D01*
X1316232D01*
X1314962Y1018031D01*
Y1016762D01*
X1316232Y1015492D01*
X1318771D01*
X1320040Y1016762D01*
X1307345Y1023110D02*
X1309884Y1021840D01*
X1312423Y1019301D01*
Y1016762D01*
X1311153Y1015492D01*
X1308614D01*
X1307345Y1016762D01*
Y1018031D01*
X1308614Y1019301D01*
X1312423D01*
X876298Y1094739D02*
X877568Y1096009D01*
X880107D01*
X881377Y1094739D01*
Y1089661D01*
X880107Y1088391D01*
X877568D01*
X876298Y1089661D01*
X869950Y1088391D02*
Y1096009D01*
X873759Y1092200D01*
X868681D01*
X861063Y1096009D02*
X866142D01*
Y1092200D01*
X863602Y1093470D01*
X862333D01*
X861063Y1092200D01*
Y1089661D01*
X862333Y1088391D01*
X864872D01*
X866142Y1089661D01*
X877568Y941069D02*
X878838Y942339D01*
X881377D01*
X882647Y941069D01*
Y935991D01*
X881377Y934721D01*
X878838D01*
X877568Y935991D01*
X871220Y934721D02*
Y942339D01*
X875029Y938530D01*
X869951D01*
X867412Y941069D02*
X866142Y942339D01*
X863603D01*
X862333Y941069D01*
Y939800D01*
X863603Y938530D01*
X864872D01*
X863603D01*
X862333Y937260D01*
Y935991D01*
X863603Y934721D01*
X866142D01*
X867412Y935991D01*
X1055369Y1094739D02*
X1056638Y1096009D01*
X1059177D01*
X1060447Y1094739D01*
Y1089661D01*
X1059177Y1088391D01*
X1056638D01*
X1055369Y1089661D01*
X1049021Y1088391D02*
Y1096009D01*
X1052830Y1092200D01*
X1047751D01*
X1045212Y1088391D02*
X1042673D01*
X1043942D01*
Y1096009D01*
X1045212Y1094739D01*
X1057908Y941069D02*
X1059178Y942339D01*
X1061717D01*
X1062987Y941069D01*
Y935991D01*
X1061717Y934721D01*
X1059178D01*
X1057908Y935991D01*
X1055369Y941069D02*
X1054100Y942339D01*
X1051560D01*
X1050291Y941069D01*
Y939800D01*
X1051560Y938530D01*
X1052830D01*
X1051560D01*
X1050291Y937260D01*
Y935991D01*
X1051560Y934721D01*
X1054100D01*
X1055369Y935991D01*
X1047752D02*
X1046482Y934721D01*
X1043943D01*
X1042673Y935991D01*
Y941069D01*
X1043943Y942339D01*
X1046482D01*
X1047752Y941069D01*
Y939800D01*
X1046482Y938530D01*
X1042673D01*
X1238248Y941069D02*
X1239518Y942339D01*
X1242057D01*
X1243327Y941069D01*
Y935991D01*
X1242057Y934721D01*
X1239518D01*
X1238248Y935991D01*
X1235709Y941069D02*
X1234440Y942339D01*
X1231900D01*
X1230631Y941069D01*
Y939800D01*
X1231900Y938530D01*
X1233170D01*
X1231900D01*
X1230631Y937260D01*
Y935991D01*
X1231900Y934721D01*
X1234440D01*
X1235709Y935991D01*
X1228092Y942339D02*
X1223013D01*
Y941069D01*
X1228092Y935991D01*
Y934721D01*
X1236978Y1094739D02*
X1238248Y1096009D01*
X1240787D01*
X1242057Y1094739D01*
Y1089661D01*
X1240787Y1088391D01*
X1238248D01*
X1236978Y1089661D01*
X1230630Y1088391D02*
Y1096009D01*
X1234439Y1092200D01*
X1229361D01*
X1226822Y1094739D02*
X1225552Y1096009D01*
X1223013D01*
X1221743Y1094739D01*
Y1089661D01*
X1223013Y1088391D01*
X1225552D01*
X1226822Y1089661D01*
Y1094739D01*
X1417318D02*
X1418588Y1096009D01*
X1421127D01*
X1422397Y1094739D01*
Y1089661D01*
X1421127Y1088391D01*
X1418588D01*
X1417318Y1089661D01*
X1414779Y1094739D02*
X1413510Y1096009D01*
X1410970D01*
X1409701Y1094739D01*
Y1093470D01*
X1410970Y1092200D01*
X1412240D01*
X1410970D01*
X1409701Y1090930D01*
Y1089661D01*
X1410970Y1088391D01*
X1413510D01*
X1414779Y1089661D01*
X1402083Y1096009D02*
X1407162D01*
Y1092200D01*
X1404622Y1093470D01*
X1403353D01*
X1402083Y1092200D01*
Y1089661D01*
X1403353Y1088391D01*
X1405892D01*
X1407162Y1089661D01*
X1418588Y941069D02*
X1419858Y942339D01*
X1422397D01*
X1423667Y941069D01*
Y935991D01*
X1422397Y934721D01*
X1419858D01*
X1418588Y935991D01*
X1416049Y941069D02*
X1414780Y942339D01*
X1412240D01*
X1410971Y941069D01*
Y939800D01*
X1412240Y938530D01*
X1413510D01*
X1412240D01*
X1410971Y937260D01*
Y935991D01*
X1412240Y934721D01*
X1414780D01*
X1416049Y935991D01*
X1408432Y941069D02*
X1407162Y942339D01*
X1404623D01*
X1403353Y941069D01*
Y939800D01*
X1404623Y938530D01*
X1405892D01*
X1404623D01*
X1403353Y937260D01*
Y935991D01*
X1404623Y934721D01*
X1407162D01*
X1408432Y935991D01*
X1544951Y562609D02*
Y557530D01*
X1542411Y554991D01*
X1539872Y557530D01*
Y562609D01*
X1537333D02*
Y554991D01*
X1533524D01*
X1532255Y556261D01*
Y561339D01*
X1533524Y562609D01*
X1537333D01*
X1529716Y554991D02*
X1527176D01*
X1528446D01*
Y562609D01*
X1529716Y561339D01*
X1523368D02*
X1522098Y562609D01*
X1519559D01*
X1518289Y561339D01*
Y556261D01*
X1519559Y554991D01*
X1522098D01*
X1523368Y556261D01*
Y561339D01*
X1475737Y591821D02*
Y599439D01*
X1471928D01*
X1470658Y598169D01*
Y595630D01*
X1471928Y594360D01*
X1475737D01*
X1473197D02*
X1470658Y591821D01*
X1464310D02*
Y599439D01*
X1468119Y595630D01*
X1463041D01*
X1456693Y591821D02*
Y599439D01*
X1460502Y595630D01*
X1455423D01*
X1505458Y1015492D02*
Y1023110D01*
X1501649D01*
X1500380Y1021840D01*
Y1019301D01*
X1501649Y1018031D01*
X1505458D01*
X1502919D02*
X1500380Y1015492D01*
X1497841Y1021840D02*
X1496571Y1023110D01*
X1494032D01*
X1492762Y1021840D01*
Y1020570D01*
X1494032Y1019301D01*
X1495301D01*
X1494032D01*
X1492762Y1018031D01*
Y1016762D01*
X1494032Y1015492D01*
X1496571D01*
X1497841Y1016762D01*
X1490223Y1015492D02*
X1487684D01*
X1488953D01*
Y1023110D01*
X1490223Y1021840D01*
X1685287Y1012191D02*
Y1019809D01*
X1681478D01*
X1680208Y1018539D01*
Y1016000D01*
X1681478Y1014730D01*
X1685287D01*
X1682747D02*
X1680208Y1012191D01*
X1677669Y1018539D02*
X1676400Y1019809D01*
X1673860D01*
X1672591Y1018539D01*
Y1017270D01*
X1673860Y1016000D01*
X1675130D01*
X1673860D01*
X1672591Y1014730D01*
Y1013461D01*
X1673860Y1012191D01*
X1676400D01*
X1677669Y1013461D01*
X1670052Y1018539D02*
X1668782Y1019809D01*
X1666243D01*
X1664973Y1018539D01*
Y1013461D01*
X1666243Y1012191D01*
X1668782D01*
X1670052Y1013461D01*
Y1018539D01*
X1664332Y736601D02*
Y744219D01*
X1660523D01*
X1659254Y742949D01*
Y740410D01*
X1660523Y739140D01*
X1664332D01*
X1661793D02*
X1659254Y736601D01*
X1656714D02*
X1654175D01*
X1655445D01*
Y744219D01*
X1656714Y742949D01*
X1645288Y744219D02*
X1647827Y742949D01*
X1650366Y740410D01*
Y737871D01*
X1649097Y736601D01*
X1646558D01*
X1645288Y737871D01*
Y739140D01*
X1646558Y740410D01*
X1650366D01*
X1664332Y715011D02*
Y722629D01*
X1660523D01*
X1659254Y721359D01*
Y718820D01*
X1660523Y717550D01*
X1664332D01*
X1661793D02*
X1659254Y715011D01*
X1656714D02*
X1654175D01*
X1655445D01*
Y722629D01*
X1656714Y721359D01*
X1650366Y722629D02*
X1645288D01*
Y721359D01*
X1650366Y716281D01*
Y715011D01*
X1688462Y511811D02*
Y519429D01*
X1684653D01*
X1683384Y518159D01*
Y515620D01*
X1684653Y514350D01*
X1688462D01*
X1685923D02*
X1683384Y511811D01*
X1680844D02*
X1678305D01*
X1679575D01*
Y519429D01*
X1680844Y518159D01*
X1674496D02*
X1673227Y519429D01*
X1670688D01*
X1669418Y518159D01*
Y516890D01*
X1670688Y515620D01*
X1671957D01*
X1670688D01*
X1669418Y514350D01*
Y513081D01*
X1670688Y511811D01*
X1673227D01*
X1674496Y513081D01*
X1640202Y521971D02*
Y529589D01*
X1636393D01*
X1635124Y528319D01*
Y525780D01*
X1636393Y524510D01*
X1640202D01*
X1637663D02*
X1635124Y521971D01*
X1632584D02*
X1630045D01*
X1631315D01*
Y529589D01*
X1632584Y528319D01*
X1622428Y521971D02*
Y529589D01*
X1626236Y525780D01*
X1621158D01*
X1440178Y702311D02*
Y709929D01*
X1436369D01*
X1435100Y708659D01*
Y706120D01*
X1436369Y704850D01*
X1440178D01*
X1437639D02*
X1435100Y702311D01*
X1432560Y709929D02*
X1427482D01*
Y708659D01*
X1432560Y703581D01*
Y702311D01*
X1181098Y533401D02*
Y541019D01*
X1177289D01*
X1176020Y539749D01*
Y537210D01*
X1177289Y535940D01*
X1181098D01*
X1178559D02*
X1176020Y533401D01*
X1168402Y541019D02*
X1173480D01*
Y537210D01*
X1170941Y538480D01*
X1169672D01*
X1168402Y537210D01*
Y534671D01*
X1169672Y533401D01*
X1172211D01*
X1173480Y534671D01*
X1470658Y577849D02*
X1471928Y579119D01*
X1474467D01*
X1475737Y577849D01*
Y572771D01*
X1474467Y571501D01*
X1471928D01*
X1470658Y572771D01*
X1464310Y571501D02*
Y579119D01*
X1468119Y575310D01*
X1463041D01*
X1456693Y571501D02*
Y579119D01*
X1460502Y575310D01*
X1455423D01*
X1597658Y1094739D02*
X1598928Y1096009D01*
X1601467D01*
X1602737Y1094739D01*
Y1089661D01*
X1601467Y1088391D01*
X1598928D01*
X1597658Y1089661D01*
X1595119Y1094739D02*
X1593850Y1096009D01*
X1591310D01*
X1590041Y1094739D01*
Y1093470D01*
X1591310Y1092200D01*
X1592580D01*
X1591310D01*
X1590041Y1090930D01*
Y1089661D01*
X1591310Y1088391D01*
X1593850D01*
X1595119Y1089661D01*
X1583693Y1088391D02*
Y1096009D01*
X1587502Y1092200D01*
X1582423D01*
X1597659Y941069D02*
X1598928Y942339D01*
X1601467D01*
X1602737Y941069D01*
Y935991D01*
X1601467Y934721D01*
X1598928D01*
X1597659Y935991D01*
X1595120Y941069D02*
X1593850Y942339D01*
X1591311D01*
X1590041Y941069D01*
Y939800D01*
X1591311Y938530D01*
X1592580D01*
X1591311D01*
X1590041Y937260D01*
Y935991D01*
X1591311Y934721D01*
X1593850D01*
X1595120Y935991D01*
X1587502Y934721D02*
X1584963D01*
X1586232D01*
Y942339D01*
X1587502Y941069D01*
X1352548Y472439D02*
X1353818Y473709D01*
X1356357D01*
X1357627Y472439D01*
Y467361D01*
X1356357Y466091D01*
X1353818D01*
X1352548Y467361D01*
X1344931Y466091D02*
X1350009D01*
X1344931Y471170D01*
Y472439D01*
X1346200Y473709D01*
X1348740D01*
X1350009Y472439D01*
X1342392Y467361D02*
X1341122Y466091D01*
X1338583D01*
X1337313Y467361D01*
Y472439D01*
X1338583Y473709D01*
X1341122D01*
X1342392Y472439D01*
Y471170D01*
X1341122Y469900D01*
X1337313D01*
X1416048Y472439D02*
X1417318Y473709D01*
X1419857D01*
X1421127Y472439D01*
Y467361D01*
X1419857Y466091D01*
X1417318D01*
X1416048Y467361D01*
X1408431Y466091D02*
X1413509D01*
X1408431Y471170D01*
Y472439D01*
X1409700Y473709D01*
X1412240D01*
X1413509Y472439D01*
X1400813Y473709D02*
X1405892D01*
Y469900D01*
X1403352Y471170D01*
X1402083D01*
X1400813Y469900D01*
Y467361D01*
X1402083Y466091D01*
X1404622D01*
X1405892Y467361D01*
X1376678Y472439D02*
X1377948Y473709D01*
X1380487D01*
X1381757Y472439D01*
Y467361D01*
X1380487Y466091D01*
X1377948D01*
X1376678Y467361D01*
X1369061Y466091D02*
X1374139D01*
X1369061Y471170D01*
Y472439D01*
X1370330Y473709D01*
X1372870D01*
X1374139Y472439D01*
X1362713Y466091D02*
Y473709D01*
X1366522Y469900D01*
X1361443D01*
X1658618Y623569D02*
X1659888Y624839D01*
X1662427D01*
X1663697Y623569D01*
Y618491D01*
X1662427Y617221D01*
X1659888D01*
X1658618Y618491D01*
X1651001Y617221D02*
X1656079D01*
X1651001Y622300D01*
Y623569D01*
X1652270Y624839D01*
X1654810D01*
X1656079Y623569D01*
X1648462D02*
X1647192Y624839D01*
X1644653D01*
X1643383Y623569D01*
Y622300D01*
X1644653Y621030D01*
X1645922D01*
X1644653D01*
X1643383Y619760D01*
Y618491D01*
X1644653Y617221D01*
X1647192D01*
X1648462Y618491D01*
X1658618Y603249D02*
X1659888Y604519D01*
X1662427D01*
X1663697Y603249D01*
Y598171D01*
X1662427Y596901D01*
X1659888D01*
X1658618Y598171D01*
X1651001Y596901D02*
X1656079D01*
X1651001Y601980D01*
Y603249D01*
X1652270Y604519D01*
X1654810D01*
X1656079Y603249D01*
X1643383Y596901D02*
X1648462D01*
X1643383Y601980D01*
Y603249D01*
X1644653Y604519D01*
X1647192D01*
X1648462Y603249D01*
X1658619Y582929D02*
X1659888Y584199D01*
X1662428D01*
X1663697Y582929D01*
Y577851D01*
X1662428Y576581D01*
X1659888D01*
X1658619Y577851D01*
X1651001Y576581D02*
X1656080D01*
X1651001Y581660D01*
Y582929D01*
X1652271Y584199D01*
X1654810D01*
X1656080Y582929D01*
X1648462Y576581D02*
X1645923D01*
X1647193D01*
Y584199D01*
X1648462Y582929D01*
X1658618Y562609D02*
X1659888Y563879D01*
X1662427D01*
X1663697Y562609D01*
Y557531D01*
X1662427Y556261D01*
X1659888D01*
X1658618Y557531D01*
X1651001Y556261D02*
X1656079D01*
X1651001Y561340D01*
Y562609D01*
X1652270Y563879D01*
X1654810D01*
X1656079Y562609D01*
X1648462D02*
X1647192Y563879D01*
X1644653D01*
X1643383Y562609D01*
Y557531D01*
X1644653Y556261D01*
X1647192D01*
X1648462Y557531D01*
Y562609D01*
X1659254Y542289D02*
X1660523Y543559D01*
X1663062D01*
X1664332Y542289D01*
Y537211D01*
X1663062Y535941D01*
X1660523D01*
X1659254Y537211D01*
X1656714Y535941D02*
X1654175D01*
X1655445D01*
Y543559D01*
X1656714Y542289D01*
X1650366Y537211D02*
X1649097Y535941D01*
X1646558D01*
X1645288Y537211D01*
Y542289D01*
X1646558Y543559D01*
X1649097D01*
X1650366Y542289D01*
Y541020D01*
X1649097Y539750D01*
X1645288D01*
X1213484Y598169D02*
X1214753Y599439D01*
X1217292D01*
X1218562Y598169D01*
Y593091D01*
X1217292Y591821D01*
X1214753D01*
X1213484Y593091D01*
X1210944Y591821D02*
X1208405D01*
X1209675D01*
Y599439D01*
X1210944Y598169D01*
X1204596D02*
X1203327Y599439D01*
X1200788D01*
X1199518Y598169D01*
Y593091D01*
X1200788Y591821D01*
X1203327D01*
X1204596Y593091D01*
Y598169D01*
X1123950Y577849D02*
X1125219Y579119D01*
X1127758D01*
X1129028Y577849D01*
Y572771D01*
X1127758Y571501D01*
X1125219D01*
X1123950Y572771D01*
X1121410D02*
X1120141Y571501D01*
X1117602D01*
X1116332Y572771D01*
Y577849D01*
X1117602Y579119D01*
X1120141D01*
X1121410Y577849D01*
Y576580D01*
X1120141Y575310D01*
X1116332D01*
X896620Y695959D02*
X897889Y697229D01*
X900428D01*
X901698Y695959D01*
Y690881D01*
X900428Y689611D01*
X897889D01*
X896620Y690881D01*
X894080Y695959D02*
X892811Y697229D01*
X890272D01*
X889002Y695959D01*
Y694690D01*
X890272Y693420D01*
X889002Y692150D01*
Y690881D01*
X890272Y689611D01*
X892811D01*
X894080Y690881D01*
Y692150D01*
X892811Y693420D01*
X894080Y694690D01*
Y695959D01*
X892811Y693420D02*
X890272D01*
X896620Y674369D02*
X897889Y675639D01*
X900428D01*
X901698Y674369D01*
Y669291D01*
X900428Y668021D01*
X897889D01*
X896620Y669291D01*
X894080Y675639D02*
X889002D01*
Y674369D01*
X894080Y669291D01*
Y668021D01*
X902970Y538479D02*
X904239Y539749D01*
X906778D01*
X908048Y538479D01*
Y533401D01*
X906778Y532131D01*
X904239D01*
X902970Y533401D01*
X895352Y539749D02*
X897891Y538479D01*
X900430Y535940D01*
Y533401D01*
X899161Y532131D01*
X896622D01*
X895352Y533401D01*
Y534670D01*
X896622Y535940D01*
X900430D01*
X897890Y739139D02*
X899159Y740409D01*
X901698D01*
X902968Y739139D01*
Y734061D01*
X901698Y732791D01*
X899159D01*
X897890Y734061D01*
X890272Y740409D02*
X895350D01*
Y736600D01*
X892811Y737870D01*
X891542D01*
X890272Y736600D01*
Y734061D01*
X891542Y732791D01*
X894081D01*
X895350Y734061D01*
X1242154Y638809D02*
X1243424Y640079D01*
X1245963D01*
X1247233Y638809D01*
Y633731D01*
X1245963Y632461D01*
X1243424D01*
X1242154Y633731D01*
X1234537Y632461D02*
X1239615D01*
X1234537Y637540D01*
Y638809D01*
X1235806Y640079D01*
X1238345D01*
X1239615Y638809D01*
D12*
X899070Y611010D02*
G03*
X899070Y611010I-35000J0D01*
G01*
X1619070Y546010D02*
G03*
X1619070Y546010I-35000J0D01*
G01*
X1019070Y1141010D02*
G03*
X1019070Y1141010I-35000J0D01*
G01*
X1744070D02*
G03*
X1744070Y1141010I-35000J0D01*
G01*
M02*
