G04*
G04 #@! TF.GenerationSoftware,Altium Limited,Altium Designer,24.5.2 (23)*
G04*
G04 Layer_Color=16711935*
%FSLAX44Y44*%
%MOMM*%
G71*
G04*
G04 #@! TF.SameCoordinates,211F2C99-C352-4B84-9391-B0A9BACE0CBF*
G04*
G04*
G04 #@! TF.FilePolarity,Negative*
G04*
G01*
G75*
%ADD18C,1.0000*%
%ADD19R,1.3700X0.8112*%
%ADD20R,0.8112X1.3700*%
%ADD31C,1.8000*%
G04:AMPARAMS|DCode=32|XSize=1.8mm|YSize=1.8mm|CornerRadius=0.475mm|HoleSize=0mm|Usage=FLASHONLY|Rotation=90.000|XOffset=0mm|YOffset=0mm|HoleType=Round|Shape=RoundedRectangle|*
%AMROUNDEDRECTD32*
21,1,1.8000,0.8500,0,0,90.0*
21,1,0.8500,1.8000,0,0,90.0*
1,1,0.9500,0.4250,0.4250*
1,1,0.9500,0.4250,-0.4250*
1,1,0.9500,-0.4250,-0.4250*
1,1,0.9500,-0.4250,0.4250*
%
%ADD32ROUNDEDRECTD32*%
G04:AMPARAMS|DCode=33|XSize=1.624mm|YSize=1.624mm|CornerRadius=0.431mm|HoleSize=0mm|Usage=FLASHONLY|Rotation=0.000|XOffset=0mm|YOffset=0mm|HoleType=Round|Shape=RoundedRectangle|*
%AMROUNDEDRECTD33*
21,1,1.6240,0.7620,0,0,0.0*
21,1,0.7620,1.6240,0,0,0.0*
1,1,0.8620,0.3810,-0.3810*
1,1,0.8620,-0.3810,-0.3810*
1,1,0.8620,-0.3810,0.3810*
1,1,0.8620,0.3810,0.3810*
%
%ADD33ROUNDEDRECTD33*%
%ADD34C,1.6240*%
%ADD35O,3.6000X2.6000*%
G04:AMPARAMS|DCode=36|XSize=2.6mm|YSize=3.6mm|CornerRadius=0.675mm|HoleSize=0mm|Usage=FLASHONLY|Rotation=270.000|XOffset=0mm|YOffset=0mm|HoleType=Round|Shape=RoundedRectangle|*
%AMROUNDEDRECTD36*
21,1,2.6000,2.2500,0,0,270.0*
21,1,1.2500,3.6000,0,0,270.0*
1,1,1.3500,-1.1250,-0.6250*
1,1,1.3500,-1.1250,0.6250*
1,1,1.3500,1.1250,0.6250*
1,1,1.3500,1.1250,-0.6250*
%
%ADD36ROUNDEDRECTD36*%
%ADD37O,2.6000X3.6000*%
G04:AMPARAMS|DCode=38|XSize=2.6mm|YSize=3.6mm|CornerRadius=0.675mm|HoleSize=0mm|Usage=FLASHONLY|Rotation=0.000|XOffset=0mm|YOffset=0mm|HoleType=Round|Shape=RoundedRectangle|*
%AMROUNDEDRECTD38*
21,1,2.6000,2.2500,0,0,0.0*
21,1,1.2500,3.6000,0,0,0.0*
1,1,1.3500,0.6250,-1.1250*
1,1,1.3500,-0.6250,-1.1250*
1,1,1.3500,-0.6250,1.1250*
1,1,1.3500,0.6250,1.1250*
%
%ADD38ROUNDEDRECTD38*%
%ADD39C,2.1000*%
G04:AMPARAMS|DCode=40|XSize=2.1mm|YSize=2.1mm|CornerRadius=0.55mm|HoleSize=0mm|Usage=FLASHONLY|Rotation=90.000|XOffset=0mm|YOffset=0mm|HoleType=Round|Shape=RoundedRectangle|*
%AMROUNDEDRECTD40*
21,1,2.1000,1.0000,0,0,90.0*
21,1,1.0000,2.1000,0,0,90.0*
1,1,1.1000,0.5000,0.5000*
1,1,1.1000,0.5000,-0.5000*
1,1,1.1000,-0.5000,-0.5000*
1,1,1.1000,-0.5000,0.5000*
%
%ADD40ROUNDEDRECTD40*%
G04:AMPARAMS|DCode=41|XSize=2.1mm|YSize=2.1mm|CornerRadius=0.55mm|HoleSize=0mm|Usage=FLASHONLY|Rotation=0.000|XOffset=0mm|YOffset=0mm|HoleType=Round|Shape=RoundedRectangle|*
%AMROUNDEDRECTD41*
21,1,2.1000,1.0000,0,0,0.0*
21,1,1.0000,2.1000,0,0,0.0*
1,1,1.1000,0.5000,-0.5000*
1,1,1.1000,-0.5000,-0.5000*
1,1,1.1000,-0.5000,0.5000*
1,1,1.1000,0.5000,0.5000*
%
%ADD41ROUNDEDRECTD41*%
%ADD79R,0.6588X0.8620*%
%ADD80R,2.7416X1.1160*%
D18*
X869070Y611010D02*
G03*
X869070Y611010I-5000J0D01*
G01*
X989070Y1141010D02*
G03*
X989070Y1141010I-5000J0D01*
G01*
X1714070D02*
G03*
X1714070Y1141010I-5000J0D01*
G01*
X1589070Y546010D02*
G03*
X1589070Y546010I-5000J0D01*
G01*
D19*
X1616186Y652910D02*
D03*
Y633098D02*
D03*
X1454150Y693674D02*
D03*
Y713486D02*
D03*
X1643380Y653796D02*
D03*
Y633984D02*
D03*
X900430Y520446D02*
D03*
Y500634D02*
D03*
X1186180Y598424D02*
D03*
Y618236D02*
D03*
X1350010Y484124D02*
D03*
Y503936D02*
D03*
X1370330Y484124D02*
D03*
Y503936D02*
D03*
X1410970Y484124D02*
D03*
Y503936D02*
D03*
X1656080Y506984D02*
D03*
Y526796D02*
D03*
X956310Y980694D02*
D03*
Y1000506D02*
D03*
X1136650Y980694D02*
D03*
Y1000506D02*
D03*
X1316990Y980694D02*
D03*
Y1000506D02*
D03*
X871220Y1077976D02*
D03*
Y1058164D02*
D03*
Y924306D02*
D03*
Y904494D02*
D03*
X1051560Y1077976D02*
D03*
Y1058164D02*
D03*
Y924306D02*
D03*
Y904494D02*
D03*
X1231900Y924306D02*
D03*
Y904494D02*
D03*
Y1077976D02*
D03*
Y1058164D02*
D03*
X1412240Y1077976D02*
D03*
Y1058164D02*
D03*
Y924306D02*
D03*
Y904494D02*
D03*
X1497330Y980694D02*
D03*
Y1000506D02*
D03*
X1592580Y924306D02*
D03*
Y904494D02*
D03*
Y1077976D02*
D03*
Y1058164D02*
D03*
X1678940Y1000760D02*
D03*
Y980948D02*
D03*
D20*
X1487424Y595630D02*
D03*
X1507236D02*
D03*
Y575310D02*
D03*
X1487424D02*
D03*
X1695704Y666750D02*
D03*
X1715516D02*
D03*
X1132586Y557530D02*
D03*
X1112774D02*
D03*
X876046Y692150D02*
D03*
X856234D02*
D03*
Y671830D02*
D03*
X876046D02*
D03*
X1249521Y619760D02*
D03*
X1229709D02*
D03*
X1638046Y509270D02*
D03*
X1618234D02*
D03*
X1695196Y740410D02*
D03*
X1675384D02*
D03*
X1693926Y539750D02*
D03*
X1674114D02*
D03*
X1693926Y580390D02*
D03*
X1674114D02*
D03*
X1693926Y560070D02*
D03*
X1674114D02*
D03*
X1693926Y600710D02*
D03*
X1674114D02*
D03*
X1693926Y621030D02*
D03*
X1674114D02*
D03*
X1695196Y720090D02*
D03*
X1675384D02*
D03*
X857504Y736600D02*
D03*
X877316D02*
D03*
D31*
X1494790Y862330D02*
D03*
X1520190D02*
D03*
X1390330Y524510D02*
D03*
X1370330D02*
D03*
X1350330D02*
D03*
X1330330D02*
D03*
X979170Y862330D02*
D03*
X953770D02*
D03*
Y834390D02*
D03*
X979170D02*
D03*
X953770Y806450D02*
D03*
X979170D02*
D03*
X884320Y1108710D02*
D03*
X909320D02*
D03*
X934320D02*
D03*
X1159510Y862330D02*
D03*
X1134110D02*
D03*
Y834390D02*
D03*
X1159510D02*
D03*
X1134110Y806450D02*
D03*
X1159510D02*
D03*
X1064660Y1108710D02*
D03*
X1089660D02*
D03*
X1114660D02*
D03*
X1245000D02*
D03*
X1270000D02*
D03*
X1295000D02*
D03*
X1314450Y806450D02*
D03*
X1339850D02*
D03*
X1314450Y834390D02*
D03*
X1339850D02*
D03*
Y862330D02*
D03*
X1314450D02*
D03*
X1425340Y1108710D02*
D03*
X1450340D02*
D03*
X1475340D02*
D03*
X1494790Y834390D02*
D03*
X1520190D02*
D03*
X1494790Y806450D02*
D03*
X1520190D02*
D03*
X1675130D02*
D03*
X1700530D02*
D03*
X1675130Y834390D02*
D03*
X1700530D02*
D03*
Y862330D02*
D03*
X1675130D02*
D03*
X1605680Y1108710D02*
D03*
X1630680D02*
D03*
X1655680D02*
D03*
D32*
X1469390Y862330D02*
D03*
X1410330Y524510D02*
D03*
X928370Y862330D02*
D03*
Y834390D02*
D03*
Y806450D02*
D03*
X859320Y1108710D02*
D03*
X1108710Y862330D02*
D03*
Y834390D02*
D03*
Y806450D02*
D03*
X1039660Y1108710D02*
D03*
X1220000D02*
D03*
X1289050Y806450D02*
D03*
Y834390D02*
D03*
Y862330D02*
D03*
X1400340Y1108710D02*
D03*
X1469390Y834390D02*
D03*
Y806450D02*
D03*
X1649730D02*
D03*
Y834390D02*
D03*
Y862330D02*
D03*
X1580680Y1108710D02*
D03*
D33*
X842010Y715010D02*
D03*
X896620Y927100D02*
D03*
X1076960D02*
D03*
X1257300D02*
D03*
X1437640D02*
D03*
X1617980D02*
D03*
D34*
X892810Y715010D02*
D03*
X932180Y927100D02*
D03*
X1112520D02*
D03*
X1292860D02*
D03*
X1473200D02*
D03*
X1653540D02*
D03*
D35*
X869950Y488080D02*
D03*
D36*
Y538080D02*
D03*
D37*
X1170540Y494030D02*
D03*
X1282300D02*
D03*
D38*
X1120540D02*
D03*
X1232300D02*
D03*
D39*
X1051560Y623570D02*
D03*
Y496570D02*
D03*
X949960Y623570D02*
D03*
Y496570D02*
D03*
X1524000Y486410D02*
D03*
X1498600D02*
D03*
X1473200D02*
D03*
X1549400D02*
D03*
X1574800D02*
D03*
X1715770Y563880D02*
D03*
Y589280D02*
D03*
Y614680D02*
D03*
Y538480D02*
D03*
Y513080D02*
D03*
Y487680D02*
D03*
X1474470Y534670D02*
D03*
X1499470D02*
D03*
X1524470D02*
D03*
X849440Y1079500D02*
D03*
Y1054100D02*
D03*
Y1028700D02*
D03*
Y1003300D02*
D03*
Y927100D02*
D03*
Y952500D02*
D03*
Y977900D02*
D03*
X929640Y901700D02*
D03*
X955040D02*
D03*
X849440D02*
D03*
X980440Y1079500D02*
D03*
Y1054100D02*
D03*
Y1028700D02*
D03*
Y1003300D02*
D03*
Y927100D02*
D03*
Y952500D02*
D03*
Y977900D02*
D03*
X1029780Y1079500D02*
D03*
Y1054100D02*
D03*
Y1028700D02*
D03*
Y1003300D02*
D03*
Y927100D02*
D03*
Y952500D02*
D03*
Y977900D02*
D03*
X1109980Y901700D02*
D03*
X1135380D02*
D03*
X1029780D02*
D03*
X1160780Y1079500D02*
D03*
Y1054100D02*
D03*
Y1028700D02*
D03*
Y1003300D02*
D03*
Y927100D02*
D03*
Y952500D02*
D03*
Y977900D02*
D03*
X1210120Y1079500D02*
D03*
Y1054100D02*
D03*
Y1028700D02*
D03*
Y1003300D02*
D03*
Y927100D02*
D03*
Y952500D02*
D03*
Y977900D02*
D03*
X1290320Y901700D02*
D03*
X1315720D02*
D03*
X1210120D02*
D03*
X1341120Y1079500D02*
D03*
Y1054100D02*
D03*
Y1028700D02*
D03*
Y1003300D02*
D03*
Y927100D02*
D03*
Y952500D02*
D03*
Y977900D02*
D03*
X1701800D02*
D03*
Y952500D02*
D03*
Y927100D02*
D03*
Y1003300D02*
D03*
Y1028700D02*
D03*
Y1054100D02*
D03*
Y1079500D02*
D03*
X1570800Y901700D02*
D03*
X1676400D02*
D03*
X1651000D02*
D03*
X1570800Y977900D02*
D03*
Y952500D02*
D03*
Y927100D02*
D03*
Y1003300D02*
D03*
Y1028700D02*
D03*
Y1054100D02*
D03*
Y1079500D02*
D03*
X1521460Y977900D02*
D03*
Y952500D02*
D03*
Y927100D02*
D03*
Y1003300D02*
D03*
Y1028700D02*
D03*
Y1054100D02*
D03*
Y1079500D02*
D03*
X1390460Y901700D02*
D03*
X1496060D02*
D03*
X1470660D02*
D03*
X1390460Y977900D02*
D03*
Y952500D02*
D03*
Y927100D02*
D03*
Y1003300D02*
D03*
Y1028700D02*
D03*
Y1054100D02*
D03*
Y1079500D02*
D03*
X1715770Y767550D02*
D03*
Y717550D02*
D03*
Y742550D02*
D03*
X1683220Y486410D02*
D03*
X1633220D02*
D03*
X1658220D02*
D03*
D40*
X1447800D02*
D03*
X1449470Y534670D02*
D03*
X1608220Y486410D02*
D03*
D41*
X1715770Y640080D02*
D03*
X980440Y901700D02*
D03*
X1160780D02*
D03*
X1341120D02*
D03*
X1701800D02*
D03*
X1521460D02*
D03*
X1715770Y692550D02*
D03*
D79*
X1532890Y568960D02*
D03*
X1523492Y594360D02*
D03*
X1542288D02*
D03*
X1574800Y643890D02*
D03*
X1584198Y618490D02*
D03*
X1565402D02*
D03*
X1574800Y582930D02*
D03*
X1565402Y608330D02*
D03*
X1584198D02*
D03*
X1670050Y641350D02*
D03*
X1660652Y666750D02*
D03*
X1679448D02*
D03*
D80*
X1201420Y541020D02*
D03*
Y513080D02*
D03*
M02*
