G04*
G04 #@! TF.GenerationSoftware,Altium Limited,Altium Designer,24.5.2 (23)*
G04*
G04 Layer_Color=8388736*
%FSLAX44Y44*%
%MOMM*%
G71*
G04*
G04 #@! TF.SameCoordinates,211F2C99-C352-4B84-9391-B0A9BACE0CBF*
G04*
G04*
G04 #@! TF.FilePolarity,Negative*
G04*
G01*
G75*
%ADD18C,1.0000*%
%ADD19R,1.3700X0.8112*%
%ADD20R,0.8112X1.3700*%
%ADD21R,2.3860X1.6240*%
%ADD22R,6.3484X6.8310*%
%ADD23R,1.1000X2.2000*%
%ADD24R,1.6240X0.6080*%
%ADD25R,1.6240X1.7510*%
%ADD26R,0.6080X1.6240*%
%ADD27R,2.0050X0.6080*%
%ADD28R,1.1160X0.8620*%
%ADD29R,0.4000X1.3000*%
%ADD30R,1.3000X0.4000*%
%ADD31C,1.8000*%
G04:AMPARAMS|DCode=32|XSize=1.8mm|YSize=1.8mm|CornerRadius=0.475mm|HoleSize=0mm|Usage=FLASHONLY|Rotation=90.000|XOffset=0mm|YOffset=0mm|HoleType=Round|Shape=RoundedRectangle|*
%AMROUNDEDRECTD32*
21,1,1.8000,0.8500,0,0,90.0*
21,1,0.8500,1.8000,0,0,90.0*
1,1,0.9500,0.4250,0.4250*
1,1,0.9500,0.4250,-0.4250*
1,1,0.9500,-0.4250,-0.4250*
1,1,0.9500,-0.4250,0.4250*
%
%ADD32ROUNDEDRECTD32*%
G04:AMPARAMS|DCode=33|XSize=1.624mm|YSize=1.624mm|CornerRadius=0.431mm|HoleSize=0mm|Usage=FLASHONLY|Rotation=0.000|XOffset=0mm|YOffset=0mm|HoleType=Round|Shape=RoundedRectangle|*
%AMROUNDEDRECTD33*
21,1,1.6240,0.7620,0,0,0.0*
21,1,0.7620,1.6240,0,0,0.0*
1,1,0.8620,0.3810,-0.3810*
1,1,0.8620,-0.3810,-0.3810*
1,1,0.8620,-0.3810,0.3810*
1,1,0.8620,0.3810,0.3810*
%
%ADD33ROUNDEDRECTD33*%
%ADD34C,1.6240*%
%ADD35O,3.6000X2.6000*%
G04:AMPARAMS|DCode=36|XSize=2.6mm|YSize=3.6mm|CornerRadius=0.675mm|HoleSize=0mm|Usage=FLASHONLY|Rotation=270.000|XOffset=0mm|YOffset=0mm|HoleType=Round|Shape=RoundedRectangle|*
%AMROUNDEDRECTD36*
21,1,2.6000,2.2500,0,0,270.0*
21,1,1.2500,3.6000,0,0,270.0*
1,1,1.3500,-1.1250,-0.6250*
1,1,1.3500,-1.1250,0.6250*
1,1,1.3500,1.1250,0.6250*
1,1,1.3500,1.1250,-0.6250*
%
%ADD36ROUNDEDRECTD36*%
%ADD37O,2.6000X3.6000*%
G04:AMPARAMS|DCode=38|XSize=2.6mm|YSize=3.6mm|CornerRadius=0.675mm|HoleSize=0mm|Usage=FLASHONLY|Rotation=0.000|XOffset=0mm|YOffset=0mm|HoleType=Round|Shape=RoundedRectangle|*
%AMROUNDEDRECTD38*
21,1,2.6000,2.2500,0,0,0.0*
21,1,1.2500,3.6000,0,0,0.0*
1,1,1.3500,0.6250,-1.1250*
1,1,1.3500,-0.6250,-1.1250*
1,1,1.3500,-0.6250,1.1250*
1,1,1.3500,0.6250,1.1250*
%
%ADD38ROUNDEDRECTD38*%
%ADD39C,2.1000*%
G04:AMPARAMS|DCode=40|XSize=2.1mm|YSize=2.1mm|CornerRadius=0.55mm|HoleSize=0mm|Usage=FLASHONLY|Rotation=90.000|XOffset=0mm|YOffset=0mm|HoleType=Round|Shape=RoundedRectangle|*
%AMROUNDEDRECTD40*
21,1,2.1000,1.0000,0,0,90.0*
21,1,1.0000,2.1000,0,0,90.0*
1,1,1.1000,0.5000,0.5000*
1,1,1.1000,0.5000,-0.5000*
1,1,1.1000,-0.5000,-0.5000*
1,1,1.1000,-0.5000,0.5000*
%
%ADD40ROUNDEDRECTD40*%
G04:AMPARAMS|DCode=41|XSize=2.1mm|YSize=2.1mm|CornerRadius=0.55mm|HoleSize=0mm|Usage=FLASHONLY|Rotation=0.000|XOffset=0mm|YOffset=0mm|HoleType=Round|Shape=RoundedRectangle|*
%AMROUNDEDRECTD41*
21,1,2.1000,1.0000,0,0,0.0*
21,1,1.0000,2.1000,0,0,0.0*
1,1,1.1000,0.5000,-0.5000*
1,1,1.1000,-0.5000,-0.5000*
1,1,1.1000,-0.5000,0.5000*
1,1,1.1000,0.5000,0.5000*
%
%ADD41ROUNDEDRECTD41*%
%ADD42C,0.7000*%
D18*
X869070Y611010D02*
G03*
X869070Y611010I-5000J0D01*
G01*
X989070Y1141010D02*
G03*
X989070Y1141010I-5000J0D01*
G01*
X1714070D02*
G03*
X1714070Y1141010I-5000J0D01*
G01*
X1589070Y546010D02*
G03*
X1589070Y546010I-5000J0D01*
G01*
D19*
X1443990Y867664D02*
D03*
Y887476D02*
D03*
X1459230Y603504D02*
D03*
Y623316D02*
D03*
X1163320Y736346D02*
D03*
Y716534D02*
D03*
X1047750Y723646D02*
D03*
Y703834D02*
D03*
X1143000Y716534D02*
D03*
Y736346D02*
D03*
X1379220Y578358D02*
D03*
Y598170D02*
D03*
X1383030Y618744D02*
D03*
Y638556D02*
D03*
X1277620Y646176D02*
D03*
Y626364D02*
D03*
X1418590Y658876D02*
D03*
Y639064D02*
D03*
X1438910Y658876D02*
D03*
Y639064D02*
D03*
X1459230Y658876D02*
D03*
Y639064D02*
D03*
X1438910Y603504D02*
D03*
Y623316D02*
D03*
X1418590Y603504D02*
D03*
Y623316D02*
D03*
X1668780Y639064D02*
D03*
Y658876D02*
D03*
X1438910Y567944D02*
D03*
Y587756D02*
D03*
X1549400Y743966D02*
D03*
Y724154D02*
D03*
X1591746Y743390D02*
D03*
Y723578D02*
D03*
X1648460Y658876D02*
D03*
Y639064D02*
D03*
X902970Y851916D02*
D03*
Y832104D02*
D03*
Y887476D02*
D03*
Y867664D02*
D03*
X1083310Y887476D02*
D03*
Y867664D02*
D03*
Y851916D02*
D03*
Y832104D02*
D03*
X1263650Y851916D02*
D03*
Y832104D02*
D03*
Y887476D02*
D03*
Y867664D02*
D03*
X1443990Y851916D02*
D03*
Y832104D02*
D03*
X1624330Y887476D02*
D03*
Y867664D02*
D03*
Y851916D02*
D03*
Y832104D02*
D03*
X1003300Y955294D02*
D03*
Y975106D02*
D03*
X1183640Y955294D02*
D03*
Y975106D02*
D03*
X1363980Y955294D02*
D03*
Y975106D02*
D03*
X1544320Y955294D02*
D03*
Y975106D02*
D03*
X1724660D02*
D03*
Y955294D02*
D03*
X1277620Y661924D02*
D03*
Y681736D02*
D03*
D20*
X1403898Y724440D02*
D03*
X1384086D02*
D03*
X1401064Y570230D02*
D03*
X1420876D02*
D03*
X1064768Y669290D02*
D03*
X1084580D02*
D03*
X1277366Y584200D02*
D03*
X1257554D02*
D03*
X1242060D02*
D03*
X1222248D02*
D03*
X1403898Y744760D02*
D03*
X1384086D02*
D03*
Y704120D02*
D03*
X1403898D02*
D03*
X1419646Y724440D02*
D03*
X1439458D02*
D03*
X1380744Y656590D02*
D03*
X1400556D02*
D03*
X1693926Y560070D02*
D03*
X1674114D02*
D03*
X1693926Y539750D02*
D03*
X1674114D02*
D03*
X1651254Y676910D02*
D03*
X1671066D02*
D03*
X1401064Y549910D02*
D03*
X1420876D02*
D03*
X1693926Y600710D02*
D03*
X1674114D02*
D03*
X1693926Y621030D02*
D03*
X1674114D02*
D03*
X1439458Y744760D02*
D03*
X1419646D02*
D03*
X1693926Y580390D02*
D03*
X1674114D02*
D03*
X1439458Y704120D02*
D03*
X1419646D02*
D03*
X1239774Y684530D02*
D03*
X1259586D02*
D03*
D21*
X1016000Y718820D02*
D03*
Y673100D02*
D03*
D22*
X954532Y695960D02*
D03*
D23*
X1186180Y658830D02*
D03*
X1135380Y557830D02*
D03*
X1109980Y658830D02*
D03*
Y557830D02*
D03*
X1186180D02*
D03*
D24*
X1123950Y699770D02*
D03*
X1068070D02*
D03*
X1123950Y712470D02*
D03*
X1068070D02*
D03*
X1123950Y687070D02*
D03*
X1068070D02*
D03*
X1123950Y725170D02*
D03*
X1068070D02*
D03*
D25*
X1237742Y556260D02*
D03*
X1279398D02*
D03*
D26*
X1220470Y605790D02*
D03*
Y661670D02*
D03*
X1258570Y605790D02*
D03*
Y661670D02*
D03*
X1233170Y605790D02*
D03*
Y661670D02*
D03*
X1245870Y605790D02*
D03*
Y661670D02*
D03*
D27*
X1363980Y654050D02*
D03*
Y679450D02*
D03*
X1300480Y654050D02*
D03*
Y666750D02*
D03*
Y679450D02*
D03*
Y640080D02*
D03*
X1363980D02*
D03*
X1300480Y614680D02*
D03*
X1363980D02*
D03*
Y627380D02*
D03*
D28*
X1300480Y600710D02*
D03*
Y575310D02*
D03*
X1363980Y600710D02*
D03*
Y575310D02*
D03*
D29*
X1521186Y703004D02*
D03*
X1526186D02*
D03*
X1531186D02*
D03*
X1536186D02*
D03*
X1541186D02*
D03*
X1546186D02*
D03*
X1551186D02*
D03*
X1556186D02*
D03*
X1586186D02*
D03*
X1581186D02*
D03*
X1576186D02*
D03*
X1571186D02*
D03*
X1566186D02*
D03*
X1561186D02*
D03*
X1591186D02*
D03*
X1596186D02*
D03*
X1521186Y588004D02*
D03*
X1526186D02*
D03*
X1531186D02*
D03*
X1536186D02*
D03*
X1551186D02*
D03*
X1546186D02*
D03*
X1541186D02*
D03*
X1566186D02*
D03*
X1561186D02*
D03*
X1556186D02*
D03*
X1581186D02*
D03*
X1576186D02*
D03*
X1571186D02*
D03*
X1596186D02*
D03*
X1591186D02*
D03*
X1586186D02*
D03*
D30*
X1616186Y683004D02*
D03*
Y678004D02*
D03*
Y673004D02*
D03*
Y668004D02*
D03*
Y608004D02*
D03*
Y613004D02*
D03*
Y618004D02*
D03*
Y623004D02*
D03*
Y628004D02*
D03*
Y633004D02*
D03*
Y663004D02*
D03*
Y658004D02*
D03*
Y653004D02*
D03*
Y648004D02*
D03*
Y643004D02*
D03*
Y638004D02*
D03*
X1501186Y683004D02*
D03*
Y678004D02*
D03*
Y673004D02*
D03*
Y668004D02*
D03*
Y638004D02*
D03*
Y643004D02*
D03*
Y648004D02*
D03*
Y653004D02*
D03*
Y658004D02*
D03*
Y663004D02*
D03*
Y633004D02*
D03*
Y628004D02*
D03*
Y623004D02*
D03*
Y618004D02*
D03*
Y613004D02*
D03*
Y608004D02*
D03*
D31*
X1494790Y862330D02*
D03*
X1520190D02*
D03*
X1390330Y524510D02*
D03*
X1370330D02*
D03*
X1350330D02*
D03*
X1330330D02*
D03*
X979170Y862330D02*
D03*
X953770D02*
D03*
Y834390D02*
D03*
X979170D02*
D03*
X953770Y806450D02*
D03*
X979170D02*
D03*
X884320Y1108710D02*
D03*
X909320D02*
D03*
X934320D02*
D03*
X1159510Y862330D02*
D03*
X1134110D02*
D03*
Y834390D02*
D03*
X1159510D02*
D03*
X1134110Y806450D02*
D03*
X1159510D02*
D03*
X1064660Y1108710D02*
D03*
X1089660D02*
D03*
X1114660D02*
D03*
X1245000D02*
D03*
X1270000D02*
D03*
X1295000D02*
D03*
X1314450Y806450D02*
D03*
X1339850D02*
D03*
X1314450Y834390D02*
D03*
X1339850D02*
D03*
Y862330D02*
D03*
X1314450D02*
D03*
X1425340Y1108710D02*
D03*
X1450340D02*
D03*
X1475340D02*
D03*
X1494790Y834390D02*
D03*
X1520190D02*
D03*
X1494790Y806450D02*
D03*
X1520190D02*
D03*
X1675130D02*
D03*
X1700530D02*
D03*
X1675130Y834390D02*
D03*
X1700530D02*
D03*
Y862330D02*
D03*
X1675130D02*
D03*
X1605680Y1108710D02*
D03*
X1630680D02*
D03*
X1655680D02*
D03*
D32*
X1469390Y862330D02*
D03*
X1410330Y524510D02*
D03*
X928370Y862330D02*
D03*
Y834390D02*
D03*
Y806450D02*
D03*
X859320Y1108710D02*
D03*
X1108710Y862330D02*
D03*
Y834390D02*
D03*
Y806450D02*
D03*
X1039660Y1108710D02*
D03*
X1220000D02*
D03*
X1289050Y806450D02*
D03*
Y834390D02*
D03*
Y862330D02*
D03*
X1400340Y1108710D02*
D03*
X1469390Y834390D02*
D03*
Y806450D02*
D03*
X1649730D02*
D03*
Y834390D02*
D03*
Y862330D02*
D03*
X1580680Y1108710D02*
D03*
D33*
X842010Y715010D02*
D03*
X896620Y927100D02*
D03*
X1076960D02*
D03*
X1257300D02*
D03*
X1437640D02*
D03*
X1617980D02*
D03*
D34*
X892810Y715010D02*
D03*
X932180Y927100D02*
D03*
X1112520D02*
D03*
X1292860D02*
D03*
X1473200D02*
D03*
X1653540D02*
D03*
D35*
X869950Y488080D02*
D03*
D36*
Y538080D02*
D03*
D37*
X1170540Y494030D02*
D03*
X1282300D02*
D03*
D38*
X1120540D02*
D03*
X1232300D02*
D03*
D39*
X1051560Y623570D02*
D03*
Y496570D02*
D03*
X949960Y623570D02*
D03*
Y496570D02*
D03*
X1524000Y486410D02*
D03*
X1498600D02*
D03*
X1473200D02*
D03*
X1549400D02*
D03*
X1574800D02*
D03*
X1715770Y563880D02*
D03*
Y589280D02*
D03*
Y614680D02*
D03*
Y538480D02*
D03*
Y513080D02*
D03*
Y487680D02*
D03*
X1474470Y534670D02*
D03*
X1499470D02*
D03*
X1524470D02*
D03*
X849440Y1079500D02*
D03*
Y1054100D02*
D03*
Y1028700D02*
D03*
Y1003300D02*
D03*
Y927100D02*
D03*
Y952500D02*
D03*
Y977900D02*
D03*
X929640Y901700D02*
D03*
X955040D02*
D03*
X849440D02*
D03*
X980440Y1079500D02*
D03*
Y1054100D02*
D03*
Y1028700D02*
D03*
Y1003300D02*
D03*
Y927100D02*
D03*
Y952500D02*
D03*
Y977900D02*
D03*
X1029780Y1079500D02*
D03*
Y1054100D02*
D03*
Y1028700D02*
D03*
Y1003300D02*
D03*
Y927100D02*
D03*
Y952500D02*
D03*
Y977900D02*
D03*
X1109980Y901700D02*
D03*
X1135380D02*
D03*
X1029780D02*
D03*
X1160780Y1079500D02*
D03*
Y1054100D02*
D03*
Y1028700D02*
D03*
Y1003300D02*
D03*
Y927100D02*
D03*
Y952500D02*
D03*
Y977900D02*
D03*
X1210120Y1079500D02*
D03*
Y1054100D02*
D03*
Y1028700D02*
D03*
Y1003300D02*
D03*
Y927100D02*
D03*
Y952500D02*
D03*
Y977900D02*
D03*
X1290320Y901700D02*
D03*
X1315720D02*
D03*
X1210120D02*
D03*
X1341120Y1079500D02*
D03*
Y1054100D02*
D03*
Y1028700D02*
D03*
Y1003300D02*
D03*
Y927100D02*
D03*
Y952500D02*
D03*
Y977900D02*
D03*
X1701800D02*
D03*
Y952500D02*
D03*
Y927100D02*
D03*
Y1003300D02*
D03*
Y1028700D02*
D03*
Y1054100D02*
D03*
Y1079500D02*
D03*
X1570800Y901700D02*
D03*
X1676400D02*
D03*
X1651000D02*
D03*
X1570800Y977900D02*
D03*
Y952500D02*
D03*
Y927100D02*
D03*
Y1003300D02*
D03*
Y1028700D02*
D03*
Y1054100D02*
D03*
Y1079500D02*
D03*
X1521460Y977900D02*
D03*
Y952500D02*
D03*
Y927100D02*
D03*
Y1003300D02*
D03*
Y1028700D02*
D03*
Y1054100D02*
D03*
Y1079500D02*
D03*
X1390460Y901700D02*
D03*
X1496060D02*
D03*
X1470660D02*
D03*
X1390460Y977900D02*
D03*
Y952500D02*
D03*
Y927100D02*
D03*
Y1003300D02*
D03*
Y1028700D02*
D03*
Y1054100D02*
D03*
Y1079500D02*
D03*
X1715770Y767550D02*
D03*
Y717550D02*
D03*
Y742550D02*
D03*
X1683220Y486410D02*
D03*
X1633220D02*
D03*
X1658220D02*
D03*
D40*
X1447800D02*
D03*
X1449470Y534670D02*
D03*
X1608220Y486410D02*
D03*
D41*
X1715770Y640080D02*
D03*
X980440Y901700D02*
D03*
X1160780D02*
D03*
X1341120D02*
D03*
X1701800D02*
D03*
X1521460D02*
D03*
X1715770Y692550D02*
D03*
D42*
X927100Y688340D02*
D03*
X971550Y715010D02*
D03*
X948690Y670560D02*
D03*
X960120Y706120D02*
D03*
X971550Y670560D02*
D03*
Y706120D02*
D03*
X960120Y723900D02*
D03*
X927100Y679450D02*
D03*
X981710Y723900D02*
D03*
Y688340D02*
D03*
Y715010D02*
D03*
X960120Y670560D02*
D03*
Y688340D02*
D03*
X948690Y715010D02*
D03*
X981710Y697230D02*
D03*
X948690Y723900D02*
D03*
X937260Y679450D02*
D03*
Y697230D02*
D03*
X927100Y670560D02*
D03*
Y723900D02*
D03*
X948690Y679450D02*
D03*
Y688340D02*
D03*
Y706120D02*
D03*
X981710Y679450D02*
D03*
Y670560D02*
D03*
X937260Y688340D02*
D03*
X948690Y697230D02*
D03*
X937260Y715010D02*
D03*
X971550Y697230D02*
D03*
Y688340D02*
D03*
X960120Y697230D02*
D03*
X937260Y706120D02*
D03*
Y670560D02*
D03*
X971550Y723900D02*
D03*
X981710Y706120D02*
D03*
X927100D02*
D03*
X960120Y679450D02*
D03*
X927100Y715010D02*
D03*
X971550Y679450D02*
D03*
X927100Y697230D02*
D03*
X960120Y715010D02*
D03*
X937260Y723900D02*
D03*
M02*
